Coordinates
version=1
nRows=11
nColumns=40
inDegrees=yes

Units are S.I. units (second, meters, Newtons, ...)
Angles are in degrees.

endheader
time	pelvis_tilt	pelvis_list	pelvis_rotation	pelvis_tx	pelvis_ty	pelvis_tz	hip_flexion_r	hip_adduction_r	hip_rotation_r	knee_angle_r	knee_angle_r_beta	ankle_angle_r	subtalar_angle_r	mtp_angle_r	hip_flexion_l	hip_adduction_l	hip_rotation_l	knee_angle_l	knee_angle_l_beta	ankle_angle_l	subtalar_angle_l	mtp_angle_l	lumbar_extension	lumbar_bending	lumbar_rotation	arm_flex_r	arm_add_r	arm_rot_r	elbow_flex_r	pro_sup_r	wrist_flex_r	wrist_dev_r	arm_flex_l	arm_add_l	arm_rot_l	elbow_flex_l	pro_sup_l	wrist_flex_l	wrist_dev_l
     42.20000000	     -8.29951903	     -4.50395306	     -0.75202016	      0.97511980	      0.91801256	      0.46961613	     26.29741790	     -0.59259111	    -15.29188691	     20.04555277	     20.04555277	      4.35199634	     -1.11715824	      0.24482079	      4.69806311	     -9.67458535	     -8.33779471	     33.35096131	     33.35096131	     14.11125720	     -4.46608838	    -11.84818024	     -9.65607201	      2.66956520	      2.38016742	    -12.09630231	    -11.90738462	     -2.45939649	     28.00705663	     46.04202904	      0.00000000	      0.00000000	      7.75871032	    -17.23769177	     -6.52138546	    116.57181959	     48.86680367	      0.00000000	      0.00000000
     42.21142857	     -8.51597217	     -4.75579508	     -0.61230782	      0.97461264	      0.91889913	      0.47243965	     25.62908626	     -0.16548409	    -15.86488224	     19.42463710	     19.42463710	      4.75815718	     -0.44015555	      0.11562995	      6.82323532	    -10.33869708	     -7.26890425	     37.22678045	     37.22678045	     12.01259561	     -6.80943726	    -12.26006281	     -9.67689664	      2.78445978	      2.33154152	    -10.36322114	    -11.92235079	     -2.29130396	     28.89577360	     46.00752839	      0.00000000	      0.00000000	      6.24187376	    -16.70636899	     -6.62922403	    114.57630200	     48.82749675	      0.00000000	      0.00000000
     42.22285714	     -8.78990502	     -4.82744217	     -0.43514341	      0.97384221	      0.91966673	      0.47491237	     25.05882270	      0.00907699	    -16.49485586	     18.83241967	     18.83241967	      5.05628820	      0.57511612	     -0.25627535	      9.13432346	    -10.50447121	     -5.67575351	     41.03728236	     41.03728236	      9.35122784	    -10.20344895	    -12.47399312	     -9.64437533	      2.73695905	      2.06490834	     -8.64878424	    -12.03287090	     -1.78915709	     30.24644414	     45.93051241	      0.00000000	      0.00000000	      4.88249641	    -15.93349387	     -7.48082358	    111.33506232	     48.81639180	      0.00000000	      0.00000000
     42.23428571	     -9.00351917	     -5.01974567	     -0.28958635	      0.97298536	      0.92024002	      0.47741710	     24.40771315	      0.38265809	    -16.98225760	     18.17101901	     18.17101901	      5.32075646	      1.20103975	     -0.61920867	     11.59009617	    -10.89434202	     -4.43773131	     45.15229000	     45.15229000	      7.24295658	    -12.43823068	    -11.78651153	     -9.65696333	      2.79221940	      2.02184861	     -6.86208730	    -12.15529808	     -1.44022103	     31.63107049	     45.86455608	      0.00000000	      0.00000000	      3.69395042	    -15.29258412	     -7.64999822	    108.38079920	     48.76476559	      0.00000000	      0.00000000
     42.24571429	     -9.22575186	     -5.31159499	     -0.09584822	      0.97187442	      0.92058440	      0.47979560	     23.81146016	      0.86077651	    -17.41129290	     17.54966224	     17.54966224	      5.55810538	      1.62508637	     -0.86635695	     14.25118385	    -11.34980443	     -3.14491755	     49.36719787	     49.36719787	      5.38746237	    -14.02667900	    -10.80116664	     -9.73841983	      2.94287207	      2.01358037	     -5.02672894	    -12.28857476	     -1.34886695	     32.84213088	     45.82358666	      0.00000000	      0.00000000	      2.52560741	    -14.71900433	     -7.51721039	    105.67276102	     48.69558792	      0.00000000	      0.00000000
     42.25714286	     -9.34926301	     -5.40667839	      0.02546060	      0.97068319	      0.92101793	      0.48188972	     23.14744802	      1.13415271	    -17.72117615	     16.94078295	     16.94078295	      5.39601085	      2.02162538	     -2.29804661	     16.99393989	    -11.39335375	     -1.79944881	     53.85024168	     53.85024168	      5.85071300	    -14.27771255	     -4.35763114	     -9.88376310	      2.95880439	      2.72407204	     -4.24450324	    -12.82864993	     -0.48280431	     36.40866818	     45.63711202	      0.00000000	      0.00000000	      2.61926321	    -13.74683289	     -7.13492734	    100.45003282	     48.57611502	      0.00000000	      0.00000000
     42.26857143	     -9.50525114	     -5.59766002	      0.17226674	      0.96933051	      0.92125165	      0.48388519	     22.59098987	      1.49826897	    -17.94769718	     16.46538468	     16.46538468	      5.58629483	      2.27597594	     -2.64135379	     19.66301997	    -11.49438429	     -0.50310764	     57.72224178	     57.72224178	      4.83273711	    -15.09293925	     -2.40132558	    -10.01029714	      3.04921057	      2.79972300	     -2.23210693	    -13.01404879	     -0.53294144	     37.92895767	     45.59803874	      0.00000000	      0.00000000	      2.08363136	    -12.91331973	     -7.45526208	     95.95311322	     48.50427972	      0.00000000	      0.00000000
     42.28000000	     -9.65232597	     -5.89035259	      0.33238494	      0.96789211	      0.92127560	      0.48582407	     22.06019654	      1.96866121	    -18.13735001	     16.04896619	     16.04896619	      5.89066685	      2.41042049	     -2.79181923	     22.32731618	    -11.68578594	      0.72695454	     61.29493250	     61.29493250	      3.72968166	    -15.72123857	     -1.82147473	    -10.18884247	      3.15394244	      2.74118200	      0.04567019	    -13.14557832	     -0.68581291	     39.20772183	     45.57298856	      0.00000000	      0.00000000	      1.03167453	    -12.47520894	     -7.13738164	     93.26022572	     48.42463066	      0.00000000	      0.00000000
     42.29142857	     -9.76662985	     -6.03090008	      0.47069094	      0.96638393	      0.92148733	      0.48744386	     21.49442026	      2.28360949	    -18.18948832	     15.58527823	     15.58527823	      5.96530093	      2.45519128	     -3.34424878	     24.97787926	    -11.55619035	      1.94613632	     64.67475647	     64.67475647	      3.93010247	    -15.68066474	      1.23566964	    -10.27484684	      3.26181602	      3.16550772	      1.67236756	    -13.47417083	     -0.73376062	     41.68251507	     45.49416381	      0.00000000	      0.00000000	      1.76871018	    -11.27088830	     -7.67437095	     85.75292156	     48.31315460	      0.00000000	      0.00000000
     42.30285714	     -9.92915522	     -6.29134034	      0.63409874	      0.96475547	      0.92142038	      0.48901835	     21.00372550	      2.71530493	    -18.28110146	     15.14040360	     15.14040360	      5.99507125	      2.39682323	     -4.05777905	     27.74971995	    -11.55591840	      3.11637034	     67.83084718	     67.83084718	      4.74214153	    -15.17870300	      4.67947573	    -10.42535106	      3.41324945	      4.05697852	      2.61574643	    -13.97493823	     -1.55551960	     45.59462392	     45.40765511	      0.00000000	      0.00000000	      2.23116831	    -10.78566013	     -6.30488300	     80.26417167	     48.10698684	      0.00000000	      0.00000000
     42.31428571	    -10.04062754	     -6.52851580	      0.81681985	      0.96316952	      0.92143316	      0.49036817	     20.48889977	      3.09481607	    -18.37852046	     14.77801644	     14.77801644	      6.23266432	      2.38891159	     -4.26277927	     30.27788458	    -11.50241728	      4.14704020	     70.31339885	     70.31339885	      4.58297192	    -15.24139525	      4.94910775	    -10.56290480	      3.53554304	      4.22299684	      4.73272622	    -14.22166988	     -1.81318679	     47.68183986	     45.36576337	      0.00000000	      0.00000000	      2.38590590	     -9.99726553	     -6.50508560	     74.55937402	     48.00460071	      0.00000000	      0.00000000
